<svg xmlns="http://www.w3.org/2000/svg" viewBox="0 0 72 72" role="img" aria-label="SITUA logo">
  <defs>
    <linearGradient id="gradient" x1="0%" y1="0%" x2="100%" y2="100%">
      <stop offset="0%" stop-color="#0f4e8c" />
      <stop offset="100%" stop-color="#0f72b7" />
    </linearGradient>
  </defs>
  <path fill="url(#gradient)" d="M36 6c-9 0-16 7-16 16v14c0 15 10 24 16 30 6-6 16-15 16-30V22c0-9-7-16-16-16z"/>
  <path fill="#fff" d="M36 22a6 6 0 1 1 0 12 6 6 0 0 1 0-12zm0 16.5c-3.7 0-10 5.1-10 9.5a3 3 0 0 0 3 3h14a3 3 0 0 0 3-3c0-4.4-6.3-9.5-10-9.5z" opacity="0.95"/>
  <path fill="#fff" d="M36 4c12 0 22 9.7 22 22v14c0 7.7-2.9 15-8 20.5-5.2 5.9-12.3 9.5-14 10.2-.8.4-1.7.4-2.5 0-1.7-.7-8.8-4.3-14-10.2C12.9 55 10 47.7 10 40V26C10 13.7 21.7 4 36 4m0-2C19.2 2 6 15.2 6 32v8c0 10.6 4.1 20.6 11.7 27.7 6.4 5.5 14.7 8.8 18.3 8.8s11.9-3.3 18.3-8.8C61.9 60.6 66 50.6 66 40V32C66 15.2 52.8 2 36 2z" />
</svg>
